<?xml version="1.0" encoding="UTF-8" standalone="no"?>
<svg
   viewBox="0 0 500 500"
   version="1.1"
   id="svg11"
   sodipodi:docname="P6CD_logo_simple.svg"
   inkscape:version="1.4 (e7c3feb1, 2024-10-09)"
   inkscape:export-filename="P6CD_logo_simple.png"
   inkscape:export-xdpi="96"
   inkscape:export-ydpi="96"
   xmlns:inkscape="http://www.inkscape.org/namespaces/inkscape"
   xmlns:sodipodi="http://sodipodi.sourceforge.net/DTD/sodipodi-0.dtd"
   xmlns="http://www.w3.org/2000/svg"
   xmlns:svg="http://www.w3.org/2000/svg">
  <sodipodi:namedview
     id="namedview11"
     pagecolor="#ffffff"
     bordercolor="#000000"
     borderopacity="0.25"
     inkscape:showpageshadow="2"
     inkscape:pageopacity="0.0"
     inkscape:pagecheckerboard="0"
     inkscape:deskcolor="#d1d1d1"
     inkscape:zoom="0.832"
     inkscape:cx="160.45673"
     inkscape:cy="326.92308"
     inkscape:window-width="1512"
     inkscape:window-height="831"
     inkscape:window-x="0"
     inkscape:window-y="38"
     inkscape:window-maximized="1"
     inkscape:current-layer="svg11" />
  <defs
     id="defs1">
    <style
       id="style1">
      .cls-1 {
        fill: #0071bc;
        stroke: #0071bc;
        stroke-miterlimit: 10;
        stroke-width: 7px;
      }

      .cls-2 {
        fill: #00addc;
        stroke-width: 0px;
      }

      .cls-3 {
        fill: #fff;
        font-family: FiraCodeRoman-Bold, 'Fira Code';
        font-size: 226.53px;
        font-variation-settings: 'wght' 700;
        font-weight: 700;
      }
    </style>
  </defs>
  <g
     id="shadow">
    <rect
       class="cls-1"
       x="5.35"
       y="12.37"
       width="214.23"
       height="225.26"
       rx="28"
       ry="28"
       id="rect1" />
    <rect
       class="cls-1"
       x="250.57"
       y="12.68"
       width="214.23"
       height="225.26"
       rx="28"
       ry="28"
       id="rect2" />
    <g
       id="g4">
      <rect
         class="cls-1"
         x="33.45"
         y="261.69"
         width="214.23"
         height="225.26"
         rx="28"
         ry="28"
         id="rect3" />
      <rect
         class="cls-1"
         x="281.6"
         y="261.69"
         width="214.23"
         height="225.26"
         rx="28"
         ry="28"
         id="rect4" />
    </g>
  </g>
  <rect
     class="cls-2"
     x="247.14"
     y="9.2299995"
     width="210.3"
     height="210.3"
     rx="28"
     ry="28"
     id="rect5" />
  <rect
     class="cls-2"
     x="1.83"
     y="8.8100004"
     width="210.3"
     height="210.3"
     rx="28"
     ry="28"
     id="rect6" />
  <rect
     class="cls-2"
     x="29.639999"
     y="258.13"
     width="210.3"
     height="210.3"
     rx="28"
     ry="28"
     id="rect7" />
  <rect
     class="cls-2"
     x="278.13"
     y="258.13"
     width="210.3"
     height="210.3"
     rx="28"
     ry="28"
     id="rect8" />
  <path
     d="m 174.95006,83.597455 q 0,11.061035 -3.87136,21.679625 -3.87136,10.50799 -11.06103,17.69766 -9.84433,9.73371 -22.01146,14.71118 -12.05653,4.97746 -30.08602,4.97746 H 81.484316 V 196.3094 H 39.009941 V 31.61059 h 69.905739 q 15.70667,0 26.43588,2.765259 10.83981,2.654648 19.13559,8.074555 9.95493,6.526011 15.15362,16.702163 5.30929,10.176153 5.30929,24.444888 z m -43.91231,0.995493 q 0,-6.968452 -3.76075,-11.945918 -3.76075,-5.088076 -8.73822,-7.079062 -6.63662,-2.654649 -12.94141,-2.87587 -6.304787,-0.331831 -16.812771,-0.331831 h -7.300283 v 49.332213 h 12.167139 q 10.839815,0 17.808265,-1.32732 7.07906,-1.32732 11.83531,-5.3093 4.09258,-3.53953 5.86235,-8.406384 1.88037,-4.977466 1.88037,-12.056528 z"
     id="text8"
     class="cls-3"
     style="font-weight:700;font-size:226.53px;font-family:FiraCodeRoman-Bold, 'Fira Code';font-variation-settings:'wght' 700;fill:#ffffff"
     aria-label="P" />
  <path
     d="m 419.6517,140.48404 q 0,12.72019 -4.64563,23.89184 -4.64564,11.17165 -13.05203,18.80376 -8.95943,8.18517 -20.79474,12.49897 -11.7247,4.3138 -27.54198,4.3138 -14.82179,0 -27.09953,-3.98197 -12.16714,-4.09258 -20.90536,-12.38836 -10.06554,-9.51249 -15.37484,-24.5555 -5.3093,-15.043 -5.3093,-35.94836 0,-21.67963 4.97747,-38.492403 4.97746,-16.812774 16.25972,-29.754185 10.83982,-12.388359 28.09503,-19.246201 17.36583,-6.857842 41.25766,-6.857842 8.07456,0 17.69766,1.106104 9.6231,1.106103 12.49897,1.659155 v 32.408833 h -4.2032 q -2.98648,-1.437935 -10.17615,-3.2077 -7.07906,-1.880376 -16.14911,-1.880376 -21.23719,0 -33.0725,10.397373 -11.8353,10.397373 -14.26873,28.979912 8.517,-5.088076 17.91888,-8.185166 9.51249,-3.2077 20.46291,-3.2077 9.6231,0 17.80827,2.212207 8.29577,2.212207 15.37484,7.079062 9.18066,6.415397 14.71117,17.255217 5.53052,10.83981 5.53052,27.09953 z m -50.32771,24.88733 q 3.42892,-3.76075 5.41991,-8.84883 2.1016,-5.19868 2.1016,-14.04751 0,-8.07456 -2.32282,-13.16263 -2.32282,-5.19869 -6.4154,-8.29578 -3.98198,-3.09709 -9.40188,-4.20319 -5.41991,-1.21672 -11.17165,-1.21672 -4.86685,0 -10.17615,1.10611 -5.3093,1.1061 -9.73371,2.76526 0,1.1061 -0.11061,3.65014 -0.11061,2.54404 -0.11061,6.4154 0,13.60507 2.65465,22.4539 2.76526,8.73822 7.30028,13.38385 3.09709,3.42892 7.30028,5.08808 4.2032,1.54854 9.07005,1.54854 3.65014,0 8.07456,-1.65915 4.42441,-1.65916 7.5215,-4.97747 z"
     id="text9"
     class="cls-3"
     style="font-weight:700;font-size:226.53px;font-family:FiraCodeRoman-Bold, 'Fira Code';font-variation-settings:'wght' 700;fill:#ffffff"
     aria-label="6" />
  <path
     d="m 461.09438,363.44593 q 0,23.00696 -10.50799,41.25767 -10.50798,18.14009 -26.54648,27.8738 -12.05653,7.30029 -26.43587,10.17616 -14.37935,2.87587 -34.06799,2.87587 H 305.46561 V 280.93061 h 59.72959 q 20.13109,0 34.73165,3.42892 14.60057,3.31831 24.5555,9.51249 17.03399,10.39738 26.76771,28.09503 9.84432,17.58705 9.84432,41.47888 z m -43.91231,-0.33183 q 0,-16.25972 -5.97296,-27.76319 -5.86235,-11.61409 -18.69315,-18.1401 -6.52601,-3.2077 -13.38385,-4.31381 -6.74723,-1.21671 -20.46292,-1.21671 h -10.7292 v 103.08885 h 10.7292 q 15.15362,0 22.23268,-1.32733 7.07906,-1.43793 13.8263,-5.08807 11.61408,-6.63662 17.03399,-17.69766 5.41991,-11.17164 5.41991,-27.54198 z"
     id="text10"
     class="cls-3"
     style="font-weight:700;font-size:226.53px;font-family:FiraCodeRoman-Bold, 'Fira Code';font-variation-settings:'wght' 700;fill:#ffffff"
     aria-label="D" />
  <path
     d="m 147.67611,448.83713 q -18.36132,0 -33.95738,-5.41991 Q 98.233282,437.99731 87.061636,427.26811 75.889991,416.5389 69.695811,400.5004 q -6.083569,-16.0385 -6.083569,-37.05447 0,-19.57803 5.862348,-35.50592 5.862349,-15.92789 17.033994,-27.32076 10.729204,-10.95042 26.546486,-16.92338 15.92789,-5.97296 34.73165,-5.97296 10.39737,0 18.69315,1.21672 8.40638,1.1061 15.48545,2.98648 7.41089,2.10159 13.38385,4.75624 6.08357,2.54404 10.61859,4.75625 v 39.93033 h -4.86685 q -3.09709,-2.65465 -7.85334,-6.30479 -4.64563,-3.65014 -10.61859,-7.18967 -6.08357,-3.53953 -13.16263,-5.97296 -7.07906,-2.43343 -15.15362,-2.43343 -8.95944,0 -17.03399,2.87587 -8.07456,2.76526 -14.9324,9.29127 -6.52601,6.30479 -10.6186,16.70216 -3.98197,10.39738 -3.98197,25.21916 0,15.48545 4.31381,25.88283 4.42441,10.39737 11.06103,16.37033 6.74723,6.08357 15.04301,8.73822 8.29577,2.54403 16.37033,2.54403 7.74272,0 15.26423,-2.32281 7.63211,-2.32282 14.04751,-6.30479 5.41991,-3.2077 10.06555,-6.85784 4.64563,-3.65015 7.63211,-6.30479 h 4.42441 V 434.679 q -6.19418,2.76526 -11.8353,5.19869 -5.64113,2.43342 -11.83531,4.20319 -8.07456,2.32282 -15.15362,3.53953 -7.07906,1.21672 -19.46742,1.21672 z"
     id="text11"
     class="cls-3"
     style="font-weight:700;font-size:226.53px;font-family:FiraCodeRoman-Bold, 'Fira Code';font-variation-settings:'wght' 700;fill:#ffffff"
     aria-label="C" />
</svg>
